<mxfile host="app.diagrams.net" modified="2022-03-01T02:32:48.976Z" agent="5.0 (Windows NT 10.0; Win64; x64) AppleWebKit/537.36 (KHTML, like Gecko) Chrome/98.0.4758.102 Safari/537.36" etag="Fj1My279i21VI8Ydykv8" version="16.6.4" type="github">
  <diagram id="p_dVJMirOIaYcVQK7qZ6" name="第 1 页">
    <mxGraphModel dx="1422" dy="754" grid="1" gridSize="10" guides="1" tooltips="1" connect="1" arrows="1" fold="1" page="1" pageScale="1" pageWidth="827" pageHeight="1169" math="0" shadow="0">
      <root>
        <mxCell id="0" />
        <mxCell id="1" parent="0" />
        <mxCell id="bvMrwGiHknIcB0Qy392a-1" value="从业主体管理系统" style="swimlane;startSize=20;" vertex="1" parent="1">
          <mxGeometry x="80" y="40" width="230" height="630" as="geometry">
            <mxRectangle x="180" y="40" width="60" height="20" as="alternateBounds" />
          </mxGeometry>
        </mxCell>
        <mxCell id="bvMrwGiHknIcB0Qy392a-2" value="" style="html=1;points=[];perimeter=orthogonalPerimeter;" vertex="1" parent="bvMrwGiHknIcB0Qy392a-1">
          <mxGeometry x="100" y="20" width="10" height="610" as="geometry" />
        </mxCell>
        <mxCell id="bvMrwGiHknIcB0Qy392a-3" value="利于主体信息" style="endArrow=open;endFill=1;endSize=12;html=1;rounded=0;" edge="1" parent="bvMrwGiHknIcB0Qy392a-1">
          <mxGeometry width="160" relative="1" as="geometry">
            <mxPoint x="130" y="70" as="sourcePoint" />
            <mxPoint x="340" y="70" as="targetPoint" />
          </mxGeometry>
        </mxCell>
        <mxCell id="bvMrwGiHknIcB0Qy392a-6" value="房地产项目管理系统" style="swimlane;startSize=20;" vertex="1" parent="1">
          <mxGeometry x="310" y="40" width="250" height="630" as="geometry">
            <mxRectangle x="410" y="40" width="60" height="20" as="alternateBounds" />
          </mxGeometry>
        </mxCell>
        <mxCell id="bvMrwGiHknIcB0Qy392a-7" value="" style="html=1;points=[];perimeter=orthogonalPerimeter;" vertex="1" parent="bvMrwGiHknIcB0Qy392a-6">
          <mxGeometry x="120" y="20" width="10" height="610" as="geometry" />
        </mxCell>
        <mxCell id="bvMrwGiHknIcB0Qy392a-79" value="提供楼栋，楼盘表信息" style="html=1;verticalAlign=bottom;endArrow=open;dashed=1;endSize=8;rounded=0;" edge="1" parent="bvMrwGiHknIcB0Qy392a-6">
          <mxGeometry relative="1" as="geometry">
            <mxPoint x="360" y="120" as="sourcePoint" />
            <mxPoint x="140" y="120" as="targetPoint" />
          </mxGeometry>
        </mxCell>
        <mxCell id="bvMrwGiHknIcB0Qy392a-81" value="利用销售方案信息" style="html=1;verticalAlign=bottom;endArrow=open;dashed=1;endSize=8;rounded=0;" edge="1" parent="bvMrwGiHknIcB0Qy392a-6">
          <mxGeometry x="0.2609" relative="1" as="geometry">
            <mxPoint x="600" y="320" as="sourcePoint" />
            <mxPoint x="140" y="320" as="targetPoint" />
            <mxPoint as="offset" />
          </mxGeometry>
        </mxCell>
        <mxCell id="bvMrwGiHknIcB0Qy392a-69" value="权籍管理系统" style="swimlane;startSize=20;" vertex="1" parent="1">
          <mxGeometry x="560" y="40" width="250" height="630" as="geometry">
            <mxRectangle x="410" y="40" width="60" height="20" as="alternateBounds" />
          </mxGeometry>
        </mxCell>
        <mxCell id="bvMrwGiHknIcB0Qy392a-70" value="" style="html=1;points=[];perimeter=orthogonalPerimeter;" vertex="1" parent="bvMrwGiHknIcB0Qy392a-69">
          <mxGeometry x="120" y="20" width="10" height="610" as="geometry" />
        </mxCell>
        <mxCell id="bvMrwGiHknIcB0Qy392a-71" value="信息入库" style="edgeStyle=orthogonalEdgeStyle;html=1;align=left;spacingLeft=2;endArrow=block;rounded=0;entryX=1;entryY=0;" edge="1" parent="bvMrwGiHknIcB0Qy392a-69">
          <mxGeometry relative="1" as="geometry">
            <mxPoint x="132" y="67" as="sourcePoint" />
            <Array as="points">
              <mxPoint x="162" y="67" />
            </Array>
            <mxPoint x="137" y="87" as="targetPoint" />
          </mxGeometry>
        </mxCell>
        <mxCell id="bvMrwGiHknIcB0Qy392a-13" value="提供项目信息采集功能" style="endArrow=open;endFill=1;endSize=12;html=1;rounded=0;entryX=0;entryY=0.167;entryDx=0;entryDy=0;entryPerimeter=0;" edge="1" parent="bvMrwGiHknIcB0Qy392a-69">
          <mxGeometry width="160" relative="1" as="geometry">
            <mxPoint x="-110" y="70" as="sourcePoint" />
            <mxPoint x="110" y="70.10000000000002" as="targetPoint" />
          </mxGeometry>
        </mxCell>
        <mxCell id="bvMrwGiHknIcB0Qy392a-76" value="提供销售方案采集功能" style="endArrow=open;endFill=1;endSize=12;html=1;rounded=0;" edge="1" parent="bvMrwGiHknIcB0Qy392a-69">
          <mxGeometry width="160" relative="1" as="geometry">
            <mxPoint x="-110" y="180" as="sourcePoint" />
            <mxPoint x="360" y="180" as="targetPoint" />
          </mxGeometry>
        </mxCell>
        <mxCell id="bvMrwGiHknIcB0Qy392a-72" value="商品房现预售管理系统" style="swimlane;startSize=20;" vertex="1" parent="1">
          <mxGeometry x="810" y="40" width="250" height="630" as="geometry">
            <mxRectangle x="410" y="40" width="60" height="20" as="alternateBounds" />
          </mxGeometry>
        </mxCell>
        <mxCell id="bvMrwGiHknIcB0Qy392a-73" value="" style="html=1;points=[];perimeter=orthogonalPerimeter;" vertex="1" parent="bvMrwGiHknIcB0Qy392a-72">
          <mxGeometry x="120" y="20" width="10" height="610" as="geometry" />
        </mxCell>
        <mxCell id="bvMrwGiHknIcB0Qy392a-74" value="数据入库" style="edgeStyle=orthogonalEdgeStyle;html=1;align=left;spacingLeft=2;endArrow=block;rounded=0;entryX=1;entryY=0;" edge="1" parent="bvMrwGiHknIcB0Qy392a-72">
          <mxGeometry relative="1" as="geometry">
            <mxPoint x="132" y="243" as="sourcePoint" />
            <Array as="points">
              <mxPoint x="162" y="243" />
            </Array>
            <mxPoint x="137" y="263" as="targetPoint" />
          </mxGeometry>
        </mxCell>
      </root>
    </mxGraphModel>
  </diagram>
</mxfile>
